<svg xmlns="http://www.w3.org/2000/svg" viewBox="0 0 21 24" width="21" height="24">
	<style>
		tspan { white-space:pre }
		.shp0 { fill: #d4b830 } 
		.shp1 { opacity: 0.984;fill: none } 
		.shp2 { fill: #fdd83c } 
	</style>
	<g id="g5193">
		<path id="path5113" fill-rule="evenodd" class="shp0" d="M1.94 21.54L0 0L20.95 0.01L19.02 21.52L10.46 23.95L1.94 21.54ZM19.07 1.92L10.49 1.92L10.56 22.26L17.44 20.36L19.07 1.92ZM7.61 4.62L7.58 15.66L3.54 14.55L3.55 17.07L9.69 18.74L9.69 4.62L7.61 4.62Z" />
		<path id="path5159" class="shp1" d="M9 18.54C8.73 18.45 7.4 18.09 6.05 17.72L3.59 17.06L3.59 15.81C3.59 14.6 3.59 14.57 3.71 14.61C3.77 14.64 4.67 14.89 5.7 15.17L7.57 15.69L7.59 10.18L7.61 4.68L9.65 4.68L9.65 11.68C9.65 17.25 9.63 18.68 9.58 18.68C9.53 18.68 9.27 18.61 9 18.54L9 18.54Z" />
		<path id="path5157" class="shp1" d="M3.55 17.07L3.54 14.55C3.54 14.55 6.12 15.28 7.58 15.66L7.61 4.63L9.69 4.63L9.69 18.74L3.55 17.07L3.55 17.07Z" />
		<path id="path5117" fill-rule="evenodd" class="shp2" d="M10.49 1.91L19.07 1.91L17.44 20.35L10.49 22.25L10.49 1.91ZM17 17.26L17.57 10.37L13.4 10.83L13.4 7.15L17.84 7.14L18.02 4.62L11.32 4.65L11.41 13.81L15.46 13.11L15.4 15.15L11.32 16.24L11.36 18.74L17 17.26Z" />
	</g>
</svg>